<svg width="102" height="29" viewBox="0 0 102 29" fill="none" xmlns="http://www.w3.org/2000/svg">
<path d="M21.6406 27H18.248V15.1699H5.3457V27H1.9707V1.40625H5.3457V12.4102H18.248V1.40625H21.6406V27ZM47.3223 15.0293C47.3223 17.5371 46.9004 19.7285 46.0566 21.6035C45.2129 23.4668 44.0176 24.8906 42.4707 25.875C40.9238 26.8594 39.1191 27.3516 37.0566 27.3516C35.041 27.3516 33.2539 26.8594 31.6953 25.875C30.1367 24.8789 28.9238 23.4668 28.0566 21.6387C27.2012 19.7988 26.7617 17.6719 26.7383 15.2578V13.4121C26.7383 10.9512 27.166 8.77734 28.0215 6.89062C28.877 5.00391 30.084 3.5625 31.6426 2.56641C33.2129 1.55859 35.0059 1.05469 37.0215 1.05469C39.0723 1.05469 40.877 1.55273 42.4355 2.54883C44.0059 3.5332 45.2129 4.96875 46.0566 6.85547C46.9004 8.73047 47.3223 10.916 47.3223 13.4121V15.0293ZM43.9648 13.377C43.9648 10.3418 43.3555 8.01562 42.1367 6.39844C40.918 4.76953 39.2129 3.95508 37.0215 3.95508C34.8887 3.95508 33.207 4.76953 31.9766 6.39844C30.7578 8.01562 30.1309 10.2656 30.0957 13.1484V15.0293C30.0957 17.9707 30.7109 20.2852 31.9414 21.9727C33.1836 23.6484 34.8887 24.4863 37.0566 24.4863C39.2363 24.4863 40.9238 23.6953 42.1191 22.1133C43.3145 20.5195 43.9297 18.2402 43.9648 15.2754V13.377ZM56.7441 1.40625L65.1113 22.2891L73.4785 1.40625H77.8555V27H74.4805V17.0332L74.7969 6.27539L66.3945 27H63.8105L55.4258 6.32812L55.7598 17.0332V27H52.3848V1.40625H56.7441ZM98.2812 15.1699H87.1895V24.2402H100.074V27H83.8145V1.40625H99.8984V4.18359H87.1895V12.4102H98.2812V15.1699Z" fill="#C36CBB"/>
<path d="M21.6406 27V28H22.6406V27H21.6406ZM18.248 27H17.248V28H18.248V27ZM18.248 15.1699H19.248V14.1699H18.248V15.1699ZM5.3457 15.1699V14.1699H4.3457V15.1699H5.3457ZM5.3457 27V28H6.3457V27H5.3457ZM1.9707 27H0.970703V28H1.9707V27ZM1.9707 1.40625V0.40625H0.970703V1.40625H1.9707ZM5.3457 1.40625H6.3457V0.40625H5.3457V1.40625ZM5.3457 12.4102H4.3457V13.4102H5.3457V12.4102ZM18.248 12.4102V13.4102H19.248V12.4102H18.248ZM18.248 1.40625V0.40625H17.248V1.40625H18.248ZM21.6406 1.40625H22.6406V0.40625H21.6406V1.40625ZM21.6406 26H18.248V28H21.6406V26ZM19.248 27V15.1699H17.248V27H19.248ZM18.248 14.1699H5.3457V16.1699H18.248V14.1699ZM4.3457 15.1699V27H6.3457V15.1699H4.3457ZM5.3457 26H1.9707V28H5.3457V26ZM2.9707 27V1.40625H0.970703V27H2.9707ZM1.9707 2.40625H5.3457V0.40625H1.9707V2.40625ZM4.3457 1.40625V12.4102H6.3457V1.40625H4.3457ZM5.3457 13.4102H18.248V11.4102H5.3457V13.4102ZM19.248 12.4102V1.40625H17.248V12.4102H19.248ZM18.248 2.40625H21.6406V0.40625H18.248V2.40625ZM20.6406 1.40625V27H22.6406V1.40625H20.6406ZM46.0566 21.6035L46.9676 22.016L46.9686 22.0139L46.0566 21.6035ZM31.6953 25.875L31.1568 26.7176L31.1613 26.7205L31.6953 25.875ZM28.0566 21.6387L27.1498 22.0603L27.1531 22.0673L28.0566 21.6387ZM26.7383 15.2578H25.7382L25.7383 15.2675L26.7383 15.2578ZM31.6426 2.56641L32.1811 3.40902L32.1827 3.40799L31.6426 2.56641ZM42.4355 2.54883L41.897 3.39148L41.9044 3.39612L42.4355 2.54883ZM46.0566 6.85547L45.1438 7.26371L45.1447 7.26583L46.0566 6.85547ZM42.1367 6.39844L41.336 6.99752L41.3381 7.00029L42.1367 6.39844ZM31.9766 6.39844L31.1786 5.79569L31.178 5.79659L31.9766 6.39844ZM30.0957 13.1484L29.0957 13.1362V13.1484H30.0957ZM31.9414 21.9727L31.1334 22.5618L31.138 22.5682L31.9414 21.9727ZM42.1191 22.1133L42.917 22.7161L42.9191 22.7133L42.1191 22.1133ZM43.9648 15.2754L44.9648 15.2872V15.2754H43.9648ZM46.3223 15.0293C46.3223 17.426 45.9191 19.4723 45.1447 21.1932L46.9686 22.0139C47.8817 19.9848 48.3223 17.6482 48.3223 15.0293H46.3223ZM45.1457 21.191C44.3725 22.8985 43.2982 24.1631 41.9338 25.0313L43.0076 26.7187C44.737 25.6181 46.0533 24.0351 46.9676 22.016L45.1457 21.191ZM41.9338 25.0313C40.5669 25.9012 38.9534 26.3516 37.0566 26.3516V28.3516C39.2849 28.3516 41.2808 27.8175 43.0076 26.7187L41.9338 25.0313ZM37.0566 26.3516C35.2117 26.3516 33.6133 25.9036 32.2293 25.0295L31.1613 26.7205C32.8945 27.8152 34.8703 28.3516 37.0566 28.3516V26.3516ZM32.2338 25.0324C30.848 24.1467 29.7547 22.8852 28.9601 21.2101L27.1531 22.0673C28.0929 24.0484 29.4254 25.6111 31.1568 26.7176L32.2338 25.0324ZM28.9634 21.2171C28.1783 19.5285 27.7605 17.5464 27.7382 15.2481L25.7383 15.2675C25.7629 17.7973 26.2241 20.0692 27.1499 22.0603L28.9634 21.2171ZM27.7383 15.2578V13.4121H25.7383V15.2578H27.7383ZM27.7383 13.4121C27.7383 11.0672 28.1456 9.0385 28.9322 7.30358L27.1107 6.47767C26.1864 8.51619 25.7383 10.8351 25.7383 13.4121H27.7383ZM28.9322 7.30358C29.7177 5.57123 30.8046 4.28871 32.1811 3.40902L31.1041 1.72379C29.3633 2.83629 28.0362 4.43659 27.1107 6.47767L28.9322 7.30358ZM32.1827 3.40799C33.5789 2.51194 35.1813 2.05469 37.0215 2.05469V0.0546875C34.8304 0.0546875 32.8469 0.60525 31.1025 1.72482L32.1827 3.40799ZM37.0215 2.05469C38.9029 2.05469 40.5164 2.5091 41.897 3.39144L42.9741 1.70621C41.2375 0.596367 39.2416 0.0546875 37.0215 0.0546875V2.05469ZM41.9044 3.39612C43.2878 4.26329 44.3713 5.53631 45.1438 7.26371L46.9695 6.44723C46.0545 4.40119 44.724 2.80312 42.9667 1.70154L41.9044 3.39612ZM45.1447 7.26583C45.9194 8.98727 46.3223 11.0278 46.3223 13.4121H48.3223C48.3223 10.8042 47.8814 8.47367 46.9686 6.4451L45.1447 7.26583ZM46.3223 13.4121V15.0293H48.3223V13.4121H46.3223ZM44.9648 13.377C44.9648 10.2277 44.3356 7.65458 42.9353 5.79659L41.3381 7.00029C42.3754 8.37667 42.9648 10.4559 42.9648 13.377H44.9648ZM42.9374 5.79936C41.5135 3.89631 39.4998 2.95508 37.0215 2.95508V4.95508C38.926 4.95508 40.3224 5.64276 41.336 6.99752L42.9374 5.79936ZM37.0215 2.95508C34.5915 2.95508 32.6078 3.90378 31.1786 5.79569L32.7745 7.00119C33.8063 5.63528 35.1858 4.95508 37.0215 4.95508V2.95508ZM31.178 5.79659C29.7869 7.64239 29.1325 10.1278 29.0958 13.1362L31.0956 13.1606C31.1293 10.4035 31.7287 8.38886 32.7752 7.00029L31.178 5.79659ZM29.0957 13.1484V15.0293H31.0957V13.1484H29.0957ZM29.0957 15.0293C29.0957 18.0985 29.7364 20.646 31.1334 22.5618L32.7494 21.3835C31.6854 19.9243 31.0957 17.8429 31.0957 15.0293H29.0957ZM31.138 22.5682C32.5774 24.5099 34.5866 25.4863 37.0566 25.4863V23.4863C35.1908 23.4863 33.7898 22.787 32.7448 21.3772L31.138 22.5682ZM37.0566 25.4863C39.514 25.4863 41.5121 24.5756 42.917 22.7161L41.3213 21.5104C40.3356 22.815 38.9587 23.4863 37.0566 23.4863V25.4863ZM42.9191 22.7133C44.2904 20.8849 44.9283 18.3658 44.9648 15.2872L42.9649 15.2635C42.9311 18.1146 42.3385 20.1542 41.3191 21.5133L42.9191 22.7133ZM44.9648 15.2754V13.377H42.9648V15.2754H44.9648ZM56.7441 1.40625L57.6724 1.03432L57.4208 0.40625H56.7441V1.40625ZM65.1113 22.2891L64.1831 22.661L65.1113 24.9777L66.0396 22.661L65.1113 22.2891ZM73.4785 1.40625V0.40625H72.8019L72.5503 1.03432L73.4785 1.40625ZM77.8555 1.40625H78.8555V0.40625H77.8555V1.40625ZM77.8555 27V28H78.8555V27H77.8555ZM74.4805 27H73.4805V28H74.4805V27ZM74.4805 17.0332L73.4809 17.0038L73.4805 17.0185V17.0332H74.4805ZM74.7969 6.27539L75.7964 6.30479L73.8701 5.89967L74.7969 6.27539ZM66.3945 27V28H67.0682L67.3213 27.3757L66.3945 27ZM63.8105 27L62.8839 27.3759L63.137 28H63.8105V27ZM55.4258 6.32812L56.3525 5.95226L54.4263 6.35931L55.4258 6.32812ZM55.7598 17.0332H56.7598V17.0176L56.7593 17.002L55.7598 17.0332ZM55.7598 27V28H56.7598V27H55.7598ZM52.3848 27H51.3848V28H52.3848V27ZM52.3848 1.40625V0.40625H51.3848V1.40625H52.3848ZM55.8159 1.77818L64.1831 22.661L66.0396 21.9171L57.6724 1.03432L55.8159 1.77818ZM66.0396 22.661L74.4068 1.77818L72.5503 1.03432L64.1831 21.9171L66.0396 22.661ZM73.4785 2.40625H77.8555V0.40625H73.4785V2.40625ZM76.8555 1.40625V27H78.8555V1.40625H76.8555ZM77.8555 26H74.4805V28H77.8555V26ZM75.4805 27V17.0332H73.4805V27H75.4805ZM75.48 17.0626L75.7964 6.30479L73.7973 6.24599L73.4809 17.0038L75.48 17.0626ZM73.8701 5.89967L65.4678 26.6243L67.3213 27.3757L75.7236 6.65111L73.8701 5.89967ZM66.3945 26H63.8105V28H66.3945V26ZM64.7372 26.6241L56.3525 5.95226L54.4991 6.70399L62.8839 27.3759L64.7372 26.6241ZM54.4263 6.35931L54.7603 17.0644L56.7593 17.002L56.4253 6.29694L54.4263 6.35931ZM54.7598 17.0332V27H56.7598V17.0332H54.7598ZM55.7598 26H52.3848V28H55.7598V26ZM53.3848 27V1.40625H51.3848V27H53.3848ZM52.3848 2.40625H56.7441V0.40625H52.3848V2.40625ZM98.2812 15.1699V16.1699H99.2812V15.1699H98.2812ZM87.1895 15.1699V14.1699H86.1895V15.1699H87.1895ZM87.1895 24.2402H86.1895V25.2402H87.1895V24.2402ZM100.074 24.2402H101.074V23.2402H100.074V24.2402ZM100.074 27V28H101.074V27H100.074ZM83.8145 27H82.8145V28H83.8145V27ZM83.8145 1.40625V0.40625H82.8145V1.40625H83.8145ZM99.8984 1.40625H100.898V0.40625H99.8984V1.40625ZM99.8984 4.18359V5.18359H100.898V4.18359H99.8984ZM87.1895 4.18359V3.18359H86.1895V4.18359H87.1895ZM87.1895 12.4102H86.1895V13.4102H87.1895V12.4102ZM98.2812 12.4102H99.2812V11.4102H98.2812V12.4102ZM98.2812 14.1699H87.1895V16.1699H98.2812V14.1699ZM86.1895 15.1699V24.2402H88.1895V15.1699H86.1895ZM87.1895 25.2402H100.074V23.2402H87.1895V25.2402ZM99.0742 24.2402V27H101.074V24.2402H99.0742ZM100.074 26H83.8145V28H100.074V26ZM84.8145 27V1.40625H82.8145V27H84.8145ZM83.8145 2.40625H99.8984V0.40625H83.8145V2.40625ZM98.8984 1.40625V4.18359H100.898V1.40625H98.8984ZM99.8984 3.18359H87.1895V5.18359H99.8984V3.18359ZM86.1895 4.18359V12.4102H88.1895V4.18359H86.1895ZM87.1895 13.4102H98.2812V11.4102H87.1895V13.4102ZM97.2812 12.4102V15.1699H99.2812V12.4102H97.2812Z" fill="#C36CBB"/>
</svg>
